<svg width="32" height="32" viewBox="0 0 32 32" fill="none" xmlns="http://www.w3.org/2000/svg">
<path fill-rule="evenodd" clip-rule="evenodd" d="M17 15H17.5439C20.022 15 22.3986 14.0156 24.1509 12.2633C25.3779 11.0363 25.7556 9.19628 25.1111 7.58525L24.1303 5.13313C23.8044 4.31834 22.8517 3.95612 22.0668 4.34857L21.5688 4.59755C20.7997 4.98209 20.0977 5.4881 19.4897 6.09611L19.2657 6.32006C18.8645 5.6082 18.3679 4.95367 17.7891 4.3749L17.0607 3.64643C16.4749 3.06065 15.5251 3.06064 14.9393 3.64643L14.2109 4.3749C13.6321 4.95367 13.1355 5.6082 12.7343 6.32006L12.2808 5.86662C11.8248 5.41061 11.2983 5.0311 10.7215 4.74269L9.93325 4.34857C9.14833 3.95612 8.19563 4.31834 7.86971 5.13313L7.00264 7.30082C6.28921 9.0844 6.70734 11.1215 8.06568 12.4799C9.67928 14.0935 11.8678 15 14.1498 15H15V22.7021C13.7023 21.0346 11.6828 20 9.4742 20H6.66287C5.6663 20 4.94681 20.9538 5.22058 21.9121L5.79515 23.923C6.65375 26.9281 9.40045 29 12.5258 29H19.4742C22.5996 29 25.3463 26.9281 26.2049 23.923L26.7794 21.9121C27.0532 20.9538 26.3337 20 25.3371 20H22.5258C20.3172 20 18.2977 21.0346 17 22.7021V17.7785V15ZM15.6251 5.78911L16 5.4142L16.3749 5.78911C16.9069 6.32112 17.3497 6.93542 17.6862 7.60836L18.1056 8.4472C18.2493 8.73471 18.5225 8.93558 18.8398 8.98707C19.1571 9.03856 19.4798 8.93439 19.7071 8.70709L20.9039 7.51033C21.3599 7.05432 21.8864 6.67481 22.4632 6.3864L22.4752 6.38044L23.2542 8.32804C23.6015 9.19623 23.3979 10.1878 22.7367 10.849C21.3595 12.2263 19.4916 13 17.5439 13H14.1498C12.3982 13 10.7184 12.3042 9.47989 11.0657C8.68728 10.2731 8.44329 9.08435 8.85959 8.0436L9.52485 6.38044L9.82706 6.53155C10.2116 6.72382 10.5626 6.97683 10.8666 7.28083L12.2929 8.70709C12.5202 8.93439 12.8429 9.03856 13.1602 8.98707C13.4775 8.93558 13.7507 8.73471 13.8944 8.4472L14.3138 7.60836C14.6503 6.93542 15.0931 6.32112 15.6251 5.78911ZM22.5258 22C20.2934 22 18.3315 23.4799 17.7182 25.6264L17.3257 27H19.4742C21.7066 27 23.6685 25.5201 24.2818 23.3736L24.6743 22H22.5258ZM14.2818 25.6264C13.6685 23.4799 11.7066 22 9.4742 22H7.32573L7.71819 23.3736C8.33148 25.5201 10.2934 27 12.5258 27H14.6743L14.2818 25.6264Z" fill="#1F4D2D"/>
</svg>
