<svg width="32" height="32" viewBox="0 0 32 32" fill="none" xmlns="http://www.w3.org/2000/svg">
<path d="M20.9864 19.8356C20.8956 19.2908 20.3804 18.9228 19.8356 19.0136C19.2925 19.1041 18.925 19.6165 19.0128 20.1595L19.0143 20.17C19.016 20.1822 19.0188 20.2043 19.022 20.2349C19.0285 20.2965 19.0363 20.3914 19.0394 20.5107C19.0458 20.7524 19.0325 21.0759 18.9597 21.4154C18.8165 22.0836 18.4714 22.7344 17.6286 23.0715C17.1158 23.2766 16.8664 23.8586 17.0715 24.3714C17.2766 24.8842 17.8586 25.1336 18.3714 24.9285C20.0286 24.2656 20.6835 22.9164 20.9153 21.8345C21.03 21.2991 21.048 20.81 21.0387 20.458C21.034 20.2804 21.0223 20.1332 21.0112 20.0268C21.0056 19.9734 21.0001 19.93 20.9957 19.8978C20.9935 19.8817 20.9915 19.8684 20.9899 19.858L20.9879 19.8445L20.987 19.8395L20.9867 19.8374L20.9899 19.858L20.9864 19.8356Z" fill="#1F4D2D"/>
<path fill-rule="evenodd" clip-rule="evenodd" d="M18.4296 5.36465C17.2852 3.57311 14.7148 3.57311 13.5704 5.36465C12.3959 7.20339 10.7716 9.87345 9.43741 12.5424C8.77044 13.8767 8.16767 15.2271 7.72971 16.4842C7.29708 17.726 7 18.9468 7 20C7 22.6898 7.82375 24.9659 9.42893 26.571C11.0341 28.1762 13.3102 29 16 29C18.6898 29 20.9659 28.1762 22.5711 26.571C24.1763 24.9659 25 22.6898 25 20C25 18.9468 24.7029 17.726 24.2703 16.4842C23.8323 15.2271 23.2296 13.8767 22.5626 12.5424C21.2284 9.87344 19.6041 7.20339 18.4296 5.36465ZM15.2559 6.44129C15.6138 5.8809 16.3862 5.8809 16.7441 6.44129C17.9021 8.25408 19.4844 10.8575 20.7737 13.4367C21.4184 14.7265 21.9816 15.9938 22.3816 17.1422C22.787 18.3058 23 19.2782 23 20C23 22.2808 22.309 24.0047 21.1569 25.1568C20.0047 26.309 18.2808 27 16 27C13.7192 27 11.9953 26.309 10.8431 25.1568C9.69097 24.0047 9 22.2808 9 20C9 19.2782 9.213 18.3058 9.61838 17.1422C10.0184 15.9938 10.5816 14.7265 11.2263 13.4367C12.5156 10.8575 14.0979 8.25408 15.2559 6.44129Z" fill="#1F4D2D"/>
</svg>
